<svg viewBox="219.5561 309.0816 691.6924 180.8254" width="250" height="70" xmlns="http://www.w3.org/2000/svg" xmlns:xlink="http://www.w3.org/1999/xlink" preserveAspectRatio="none"><defs></defs><style>.a6izo4zJpcolor {fill:#FFFFFF;fill-opacity:1;}.aBKE9iRL30colors-0 {fill:#FFFFFF;fill-opacity:1;}.aD6z1nYkhcolor {fill:#FFFFFF;fill-opacity:1;}.aIptOCySncolors-0 {fill:#FFFFFF;fill-opacity:1;}.aqmiXrCXvjcolors-0 {fill:#FFFFFF;fill-opacity:1;}.auohVWUIs10filter-floo {flood-color:#4B4B4B;flood-opacity:1;}</style><defs>
      <filter
        x="-1000"
        y="-1000"
        width="100"
        height="100"
        id="uohVWUIs1"
        filterUnits="userSpaceOnUse"
        primitiveUnits="userSpaceOnUse"
        color-interpolation-filters="sRGB">
        <feMerge><feMergeNode in="SourceGraphic" /></feMerge>
      </filter></defs><g opacity="0.2" transform="rotate(0 219.5561 309.0816)">
<svg width="189.8057" height="180.8254" x="219.5561" y="309.0816" version="1.1" preserveAspectRatio="none" viewBox="0.5959482192993164 3.600001335144043 126.904052734375 120.9000015258789">
  <g transform="matrix(1 0 0 1 0 0)" class="aIptOCySncolors-0"><g><path d="M4.7,53.2c0.4,0,0.7-0.3,0.7-0.7V42.2c0-0.4-0.3-0.7-0.7-0.7c-0.4,0-0.7,0.3-0.7,0.7v10.3C3.9,52.9,4.2,53.2,4.7,53.2z"></path><path d="M4.7,60c0.4,0,0.7-0.3,0.7-0.7v-3.3c0-0.4-0.3-0.7-0.7-0.7c-0.4,0-0.7,0.3-0.7,0.7v3.3C3.9,59.7,4.2,60,4.7,60z"></path><path d="M124.7,89.9c-0.4,0-0.7,0.3-0.7,0.7v10.3c0,0.4,0.3,0.7,0.7,0.7c0.4,0,0.7-0.3,0.7-0.7V90.6   C125.5,90.2,125.1,89.9,124.7,89.9z"></path><path d="M124.7,103.6c-0.4,0-0.7,0.3-0.7,0.7v3.3c0,0.4,0.3,0.7,0.7,0.7c0.4,0,0.7-0.3,0.7-0.7v-3.3   C125.5,103.9,125.1,103.6,124.7,103.6z"></path><path d="M117.2,25.5c0.1,0.1,0.3,0.2,0.5,0.2c0.2,0,0.4-0.1,0.5-0.2c0.3-0.3,0.3-0.8,0-1l-1.6-1.6c-0.3-0.3-0.8-0.3-1,0   c-0.3,0.3-0.3,0.8,0,1L117.2,25.5z"></path><path d="M122.3,30.5c0.1,0.1,0.3,0.2,0.5,0.2c0.2,0,0.4-0.1,0.5-0.2c0.3-0.3,0.3-0.8,0-1l-1.6-1.6c-0.3-0.3-0.8-0.3-1,0   c-0.3,0.3-0.3,0.8,0,1L122.3,30.5z"></path><path d="M116.2,30.8c0.2,0,0.4-0.1,0.5-0.2l1.6-1.6c0.3-0.3,0.3-0.8,0-1c-0.3-0.3-0.8-0.3-1,0l-1.6,1.6c-0.3,0.3-0.3,0.8,0,1   C115.8,30.7,116,30.8,116.2,30.8z"></path><path d="M121.3,25.7c0.2,0,0.4-0.1,0.5-0.2l1.6-1.6c0.3-0.3,0.3-0.8,0-1c-0.3-0.3-0.8-0.3-1,0l-1.6,1.6c-0.3,0.3-0.3,0.8,0,1   C120.9,25.6,121.1,25.7,121.3,25.7z"></path><path d="M5.5,98.6c-0.3-0.3-0.8-0.3-1,0c-0.3,0.3-0.3,0.8,0,1l1.6,1.6c0.1,0.1,0.3,0.2,0.5,0.2c0.2,0,0.4-0.1,0.5-0.2   c0.3-0.3,0.3-0.8,0-1L5.5,98.6z"></path><path d="M10.6,103.7c-0.3-0.3-0.8-0.3-1,0c-0.3,0.3-0.3,0.8,0,1l1.6,1.6c0.1,0.1,0.3,0.2,0.5,0.2c0.2,0,0.4-0.1,0.5-0.2   c0.3-0.3,0.3-0.8,0-1L10.6,103.7z"></path><path d="M6,103.7l-1.6,1.6c-0.3,0.3-0.3,0.8,0,1c0.1,0.1,0.3,0.2,0.5,0.2c0.2,0,0.4-0.1,0.5-0.2l1.6-1.6c0.3-0.3,0.3-0.8,0-1   C6.7,103.4,6.3,103.4,6,103.7z"></path><path d="M11.1,98.6l-1.6,1.6c-0.3,0.3-0.3,0.8,0,1c0.1,0.1,0.3,0.2,0.5,0.2s0.4-0.1,0.5-0.2l1.6-1.6c0.3-0.3,0.3-0.8,0-1   C11.8,98.3,11.4,98.3,11.1,98.6z"></path><path d="M87.4,25.1c1.9,0,3.4-1.5,3.4-3.4c0-1.9-1.5-3.4-3.4-3.4c-1.9,0-3.4,1.5-3.4,3.4C84,23.6,85.5,25.1,87.4,25.1z M87.4,19.8   c1,0,1.9,0.8,1.9,1.9c0,1-0.8,1.9-1.9,1.9c-1,0-1.9-0.8-1.9-1.9C85.5,20.7,86.3,19.8,87.4,19.8z"></path><path d="M30,117.7c-1.9,0-3.4,1.5-3.4,3.4c0,1.9,1.5,3.4,3.4,3.4c1.9,0,3.4-1.5,3.4-3.4C33.4,119.2,31.9,117.7,30,117.7z M30,123   c-1,0-1.9-0.8-1.9-1.9c0-1,0.8-1.9,1.9-1.9c1,0,1.9,0.8,1.9,1.9C31.9,122.1,31.1,123,30,123z"></path><path d="M18.2,23.4c0,0.4,0.3,0.7,0.7,0.7h12.4c0.4,0,0.7-0.3,0.7-0.7c0-0.4-0.3-0.7-0.7-0.7H18.9C18.5,22.6,18.2,23,18.2,23.4z"></path><path d="M10.8,24.1h4c0.4,0,0.7-0.3,0.7-0.7c0-0.4-0.3-0.7-0.7-0.7h-4c-0.4,0-0.7,0.3-0.7,0.7C10.1,23.8,10.4,24.1,10.8,24.1z"></path><path d="M10.8,19.8h8.7c0.4,0,0.7-0.3,0.7-0.7c0-0.4-0.3-0.7-0.7-0.7h-8.7c-0.4,0-0.7,0.3-0.7,0.7C10.1,19.5,10.4,19.8,10.8,19.8z"></path><path d="M23.2,19.8H26c0.4,0,0.7-0.3,0.7-0.7c0-0.4-0.3-0.7-0.7-0.7h-2.8c-0.4,0-0.7,0.3-0.7,0.7C22.5,19.5,22.8,19.8,23.2,19.8z"></path><path d="M107.1,118.4c0-0.4-0.3-0.7-0.7-0.7H93.9c-0.4,0-0.7,0.3-0.7,0.7c0,0.4,0.3,0.7,0.7,0.7h12.4   C106.8,119.1,107.1,118.8,107.1,118.4z"></path><path d="M114.4,117.7h-4c-0.4,0-0.7,0.3-0.7,0.7c0,0.4,0.3,0.7,0.7,0.7h4c0.4,0,0.7-0.3,0.7-0.7C115.2,118,114.8,117.7,114.4,117.7   z"></path><path d="M114.4,121.9h-8.7c-0.4,0-0.7,0.3-0.7,0.7c0,0.4,0.3,0.7,0.7,0.7h8.7c0.4,0,0.7-0.3,0.7-0.7   C115.2,122.3,114.8,121.9,114.4,121.9z"></path><path d="M102.1,121.9h-2.8c-0.4,0-0.7,0.3-0.7,0.7c0,0.4,0.3,0.7,0.7,0.7h2.8c0.4,0,0.7-0.3,0.7-0.7   C102.8,122.3,102.5,121.9,102.1,121.9z"></path><path d="M127.4,77.9c-0.2-0.3-0.7-0.4-1-0.2c-4.9,3.3-9.8,6.9-14.5,10.5c-0.9,0.7-1.9,1-2.8,0.9c-0.4-0.1-1-0.3-1.4-0.8L91.1,64.1   c-0.4-0.6-0.4-1.2-0.3-1.6c0.2-0.9,0.9-1.8,1.8-2.3c3.5-2.1,7-4.4,10.4-6.6c0.3-0.2,0.4-0.7,0.2-1c-0.2-0.3-0.7-0.4-1-0.2   c-3.4,2.2-6.9,4.5-10.4,6.6c-1.2,0.7-2.1,1.8-2.4,3H58.9h-2.3H38.6c-0.3-1.2-1.2-2.3-2.4-3c-3.5-2.1-7-4.3-10.4-6.6   c-0.3-0.2-0.8-0.1-1,0.2c-0.2,0.3-0.1,0.8,0.2,1c3.4,2.3,6.9,4.5,10.4,6.6c0.9,0.6,1.6,1.4,1.8,2.3c0,0.1,0,0.1,0,0.2   c0,0.1,0,0.3,0.1,0.4c0,0.3-0.1,0.7-0.3,1L20.4,88.3c-0.4,0.6-1,0.8-1.4,0.8c-0.9,0.1-2-0.2-2.8-0.9C11.4,84.5,6.5,81,1.7,77.7   c-0.3-0.2-0.8-0.1-1,0.2c-0.2,0.3-0.1,0.8,0.2,1c4.8,3.3,9.7,6.8,14.4,10.5c1,0.8,2.2,1.2,3.3,1.2c0.2,0,0.4,0,0.7-0.1   c1-0.2,1.8-0.7,2.3-1.4l1.7-2.4c1,0.8,3.1,2.6,4,4.5c0.3,0.5,0.4,0.9,0.6,1.3c0.1,0.3,0.2,0.5,0.4,0.8c-0.4,0.3-0.8,0.7-1.2,1.1   l-1.2,1.7c-1.5,2.1-1.1,5,1,6.6l1.9,1.4c0.8,0.6,1.8,0.9,2.8,0.9c0.2,0,0.5,0,0.7-0.1c0.2,0,0.4-0.1,0.6-0.2   c-0.2,1.7,0.4,3.5,1.9,4.6l1.7,1.3v0c0.8,0.6,1.8,0.9,2.9,0.9c0.2,0,0.5,0,0.7-0.1c0.4-0.1,0.7-0.2,1.1-0.3c0,0.4,0,0.7,0,1.1   c0.2,1.3,0.9,2.4,1.9,3.2l1.7,1.3v0c0.8,0.6,1.8,0.9,2.9,0.9c0.2,0,0.5,0,0.7-0.1c0.5-0.1,0.9-0.2,1.3-0.4c0,1.4,0.6,2.7,1.7,3.6   l1.5,1.1c0.7,0.6,1.6,0.8,2.5,0.8c0.2,0,0.4,0,0.6,0c1.1-0.2,2.1-0.8,2.8-1.7l0.9-1.2c0.1,0.1,0.1,0.3,0.3,0.4   c1.1,0.7,2.3,1.1,3.5,1.1c2,0,3.9-0.9,5.1-2.7c1.1-1.6,1.3-3.5,0.8-5.2l3.1,2.2c1,0.7,2.2,1.1,3.5,1.1c0.4,0,0.8,0,1.1-0.1   c1.6-0.3,3-1.2,3.9-2.6c0.9-1.4,1.3-3,1-4.6c0-0.2-0.1-0.3-0.1-0.5l1.8,1.2c1,0.7,2.2,1.1,3.5,1.1c0.4,0,0.8,0,1.1-0.1   c1.6-0.3,3-1.2,3.9-2.6c0.9-1.4,1.3-3,1-4.6c0-0.2-0.1-0.3-0.1-0.5l2.3,1.5c1,0.7,2.2,1.1,3.5,1.1c0.4,0,0.8,0,1.1-0.1   c1.6-0.3,3-1.2,3.9-2.6c0.9-1.4,1.3-3,1-4.6c-0.3-1.6-1.2-3-2.6-3.9L80.4,80c-0.2-0.1-0.4-0.1-0.6-0.1h-3.8c-8,0-9-6.5-9.1-6.8   c0-0.4-0.4-0.6-0.7-0.6H53.4c-0.4,0-0.7,0.3-0.7,0.6c-0.7,3.8-2,6.4-4.1,7.7c-1.6,1-3.2,0.9-4,0.8V70.2l12.2-6.8h2.1h30.4   c0.1,0.5,0.2,1.1,0.5,1.5l16.6,24.2c0.5,0.8,1.4,1.3,2.3,1.4c0.2,0,0.4,0.1,0.7,0.1c1.1,0,2.3-0.4,3.3-1.2   c4.7-3.6,9.6-7.2,14.4-10.5C127.5,78.7,127.6,78.2,127.4,77.9z M32,103.5c-0.8,0.1-1.7-0.1-2.4-0.6v0l-1.9-1.4   c-1.4-1.1-1.7-3.1-0.7-4.5l1.2-1.7c0.3-0.4,0.8-0.8,1.2-1c0,0,0,0,0.1,0c0,0,0,0,0,0c0.2-0.1,0.5-0.2,0.8-0.2c0.2,0,0.3,0,0.5,0   c0.7,0,1.3,0.2,1.9,0.6l1.9,1.4c0.7,0.5,1.1,1.3,1.3,2.1c0.1,0.6,0,1.2-0.2,1.7l-2,2.7c0,0,0,0.1-0.1,0.1   C33.2,103.1,32.6,103.4,32,103.5z M39.8,110c-0.9,0.1-1.8-0.1-2.5-0.6v0l-1.7-1.3c-1.4-1-1.7-3-0.8-4.5c0.2-0.2,0.4-0.4,0.5-0.6   l1.2-1.7c0.2-0.3,0.4-0.5,0.5-0.8l1.4-1.9c0.7-0.9,1.7-1.4,2.7-1.4c0.7,0,1.4,0.2,2,0.7l1.7,1.3c1.5,1.1,1.8,3.2,0.7,4.7l-3.5,4.8   C41.5,109.4,40.7,109.9,39.8,110z M48.1,116.2c-0.9,0.1-1.8-0.1-2.5-0.6v0l-1.7-1.3c-0.7-0.5-1.2-1.3-1.3-2.2   c-0.1-0.9,0.1-1.8,0.6-2.5l5.6-7.5c0.5-0.7,1.3-1.2,2.2-1.3c0.2,0,0.3,0,0.5,0c0.7,0,1.4,0.2,2,0.7l1.7,1.3   c1.5,1.1,1.8,3.2,0.7,4.7l-5.6,7.5C49.7,115.6,49,116,48.1,116.2z M57.7,120.1c-0.4,0.6-1.1,1-1.9,1.1c-0.7,0.1-1.5-0.1-2.1-0.5v0   l-1.5-1.1c-1.3-0.9-1.5-2.7-0.6-4l1.7-2.3c0.4-0.6,1.1-1,1.9-1.1c0.1,0,0.3,0,0.4,0c0.6,0,1.2,0.2,1.7,0.6l1.5,1.1   c1.3,0.9,1.5,2.7,0.6,4L57.7,120.1z M43.5,69.2c-0.2,0.1-0.4,0.4-0.4,0.6v12.3c0,0.3,0.2,0.6,0.5,0.7c0.1,0,0.8,0.3,1.9,0.3   c1,0,2.4-0.2,3.8-1c2.3-1.4,3.9-4.1,4.7-8.1h11.5c0.5,1.9,2.6,7.4,10.4,7.4h3.9c0,0,0,0,0,0l21.6,14.8c1,0.7,1.7,1.8,1.9,3   c0.2,1.2,0,2.5-0.7,3.5c-0.7,1-1.8,1.7-3,1.9c-1.2,0.2-2.5,0-3.5-0.7l-5.5-3.7c0,0,0,0,0,0L75.1,89.5c-0.3-0.2-0.8-0.1-1,0.2   c-0.2,0.3-0.1,0.8,0.2,1l15.5,10.6c1,0.7,1.7,1.8,1.9,3c0.2,1.2,0,2.5-0.7,3.5c-1.5,2.1-4.4,2.7-6.5,1.2L69,98.4   c-0.3-0.2-0.7-0.1-1,0.1c-0.1,0.1-0.2,0.1-0.2,0.2c-0.2,0.3-0.1,0.8,0.2,1l10.6,7c1,0.7,1.7,1.8,1.9,3c0.2,1.2,0,2.5-0.7,3.5   c-0.7,1-1.8,1.7-3,1.9c-1.2,0.2-2.5,0-3.5-0.7l-10-7.1c-0.3-0.2-0.8-0.2-1,0.2c-0.2,0.3-0.2,0.8,0.2,1l3.3,2.4   c0.1,0.1,0.1,0.3,0.3,0.3c2.1,1.5,2.7,4.4,1.2,6.5c-1.5,2.1-4.4,2.7-6.5,1.2c-0.1-0.1-0.2-0.1-0.4-0.1l0.1-0.2c1.4-1.9,1-4.6-0.9-6   l-1.5-1.1c-0.9-0.7-2-0.9-3-0.8l1.9-2.5c1.6-2.1,1.1-5.2-1-6.7l-1.7-1.3c-2.1-1.6-5.1-1.1-6.7,1c-0.2-1.2-0.8-2.3-1.9-3.1L44,96.8   c-2.1-1.5-5-1.1-6.6,0.9c-0.2-1.1-0.8-2.1-1.8-2.8l-1.9-1.4c-1-0.7-2.2-1.1-3.5-0.9c-0.2,0-0.4,0.1-0.6,0.1   c-0.1-0.3-0.3-0.6-0.4-0.8c-0.2-0.4-0.4-0.8-0.6-1.4c-1.1-2.2-3.5-4.2-4.5-5.1l14.1-20.5c0.3-0.5,0.5-1,0.5-1.5h15.1L43.5,69.2z"></path><path d="M110.8,81.1c1.7,0,3.2-1.4,3.2-3.2c0-1.7-1.4-3.2-3.2-3.2c-1.7,0-3.2,1.4-3.2,3.2C107.6,79.7,109.1,81.1,110.8,81.1z    M110.8,76.2c0.9,0,1.7,0.8,1.7,1.7c0,0.9-0.8,1.7-1.7,1.7c-0.9,0-1.7-0.8-1.7-1.7C109.1,77,109.9,76.2,110.8,76.2z"></path><path d="M14,77.9c0,1.7,1.4,3.2,3.2,3.2c1.7,0,3.2-1.4,3.2-3.2c0-1.7-1.4-3.2-3.2-3.2C15.4,74.8,14,76.2,14,77.9z M18.9,77.9   c0,0.9-0.8,1.7-1.7,1.7s-1.7-0.8-1.7-1.7c0-0.9,0.8-1.7,1.7-1.7S18.9,77,18.9,77.9z"></path><path d="M96.7,62.1c-0.3,0.2-0.4,0.7-0.2,1l3.9,5.8c0.1,0.2,0.4,0.3,0.6,0.3c0.1,0,0.3,0,0.4-0.1c0.3-0.2,0.4-0.7,0.2-1l-3.9-5.8   C97.5,61.9,97,61.8,96.7,62.1z"></path><path d="M28,68.9l3.9-5.8c0.2-0.3,0.1-0.8-0.2-1c-0.3-0.2-0.8-0.1-1,0.2l-3.9,5.8c-0.2,0.3-0.1,0.8,0.2,1c0.1,0.1,0.3,0.1,0.4,0.1   C27.6,69.2,27.9,69.1,28,68.9z"></path><path d="M45.3,51.4h37.3c1.3,0,2.4-1.1,2.4-2.4v-0.9c0-1.3-1.1-2.4-2.4-2.4H81L79.8,38c-0.1-0.4-0.4-0.6-0.7-0.6h-6.2   c-1.3-0.5-2.4-1.6-3.1-3.2c-1.7-3.9-1-10.1,1.8-16.9c0-0.1,0.1-0.1,0.1-0.3c0.2-0.6,0.5-1.1,0.8-1.6c0,0,0,0,0,0c0,0,0-0.1,0.1-0.1   c0.3-0.8,0.4-1.7,0.4-2.7c0-5-4-9-9-9c-5,0-9,4-9,9c0,0.9,0.1,1.8,0.4,2.7l0,0c0,0.1,0,0.1,0.1,0.2c0.3,0.5,0.5,1,0.7,1.5   c0,0,0,0.1,0,0.1c0,0,0,0,0,0.1c2.9,6.9,3.6,13.1,1.9,17c-0.7,1.6-1.8,2.7-3.1,3.3h-6.2c-0.4,0-0.7,0.3-0.7,0.6L47,45.7h-1.7   c-1.3,0-2.4,1.1-2.4,2.4V49C42.9,50.3,44,51.4,45.3,51.4z M59.5,34.7c1.9-4.4,1.2-10.8-1.9-18.2l-0.7,0.3l0.6-0.4   c-0.2-0.5-0.5-1.1-0.8-1.6c-0.2-0.7-0.3-1.5-0.3-2.2C56.5,8.4,59.8,5,64,5c4.2,0,7.5,3.4,7.5,7.5c0,0.7-0.1,1.5-0.3,2.2   c-0.3,0.5-0.5,1.1-0.8,1.6c0,0.1-0.1,0.1-0.1,0.2l0.7,0.3l-0.7-0.2c-3.1,7.3-3.7,13.7-1.8,18.1c0.5,1.1,1.1,2,1.8,2.7H57.7   C58.4,36.7,59,35.8,59.5,34.7z M49.5,38.9h5.7h17.5h5.7l1,6.8h-31L49.5,38.9z M44.4,48.1c0-0.5,0.4-1,1-1h2.3h32.7h2.3   c0.5,0,1,0.4,1,1V49c0,0.5-0.4,1-1,1H45.3c-0.5,0-1-0.4-1-1V48.1z"></path></g></g>
</svg>
</g><g opacity="1" transform="rotate(0 428.2542 433.7257)">
<svg width="264.9977" height="24.5558" x="428.2542" y="433.7257" version="1.1" preserveAspectRatio="none" viewBox="4.56 -29.68 406.2 37.64">
  <g transform="matrix(1 0 0 1 0 0)" class="a6izo4zJpcolor"><path d="M15.04-28Q20.40-28 23.44-25.44Q26.48-22.88 26.48-18.40L26.48-18.40Q26.48-13.92 23.44-11.38Q20.40-8.84 15.04-8.84L15.04-8.84L7.52-8.84L7.52 0L4.56 0L4.56-28L15.04-28ZM14.96-11.44Q19.12-11.44 21.32-13.26Q23.52-15.08 23.52-18.40L23.52-18.40Q23.52-21.80 21.32-23.62Q19.12-25.44 14.96-25.44L14.96-25.44L7.52-25.44L7.52-11.44L14.96-11.44Z M38.48-16.92Q39.48-19.04 41.46-20.12Q43.44-21.20 46.36-21.20L46.36-21.20L46.36-18.44L45.68-18.48Q42.36-18.48 40.48-16.44Q38.60-14.40 38.60-10.72L38.60-10.72L38.60 0L35.76 0L35.76-21.04L38.48-21.04L38.48-16.92Z M63.88 0.20Q60.84 0.20 58.40-1.18Q55.96-2.56 54.56-5Q53.16-7.44 53.16-10.52L53.16-10.52Q53.16-13.60 54.56-16.04Q55.96-18.48 58.40-19.84Q60.84-21.20 63.88-21.20L63.88-21.20Q66.92-21.20 69.36-19.84Q71.80-18.48 73.18-16.04Q74.56-13.60 74.56-10.52L74.56-10.52Q74.56-7.44 73.18-5Q71.80-2.56 69.36-1.18Q66.92 0.20 63.88 0.20L63.88 0.20ZM63.88-2.32Q66.12-2.32 67.90-3.34Q69.68-4.36 70.68-6.24Q71.68-8.12 71.68-10.52L71.68-10.52Q71.68-12.92 70.68-14.80Q69.68-16.68 67.90-17.70Q66.12-18.72 63.88-18.72L63.88-18.72Q61.64-18.72 59.86-17.70Q58.08-16.68 57.06-14.80Q56.04-12.92 56.04-10.52L56.04-10.52Q56.04-8.12 57.06-6.24Q58.08-4.36 59.86-3.34Q61.64-2.32 63.88-2.32L63.88-2.32Z M95.20-21.20Q98.16-21.20 100.56-19.86Q102.96-18.52 104.32-16.08Q105.68-13.64 105.68-10.52L105.68-10.52Q105.68-7.36 104.32-4.92Q102.96-2.48 100.58-1.14Q98.20 0.20 95.20 0.20L95.20 0.20Q92.64 0.20 90.58-0.86Q88.52-1.92 87.20-3.96L87.20-3.96L87.20 7.76L84.36 7.76L84.36-21.04L87.08-21.04L87.08-16.88Q88.36-18.96 90.46-20.08Q92.56-21.20 95.20-21.20L95.20-21.20ZM95.00-2.32Q97.20-2.32 99-3.34Q100.80-4.36 101.82-6.24Q102.84-8.12 102.84-10.52L102.84-10.52Q102.84-12.92 101.82-14.78Q100.80-16.64 99-17.68Q97.20-18.72 95.00-18.72L95.00-18.72Q92.76-18.72 90.98-17.68Q89.20-16.64 88.18-14.78Q87.16-12.92 87.16-10.52L87.16-10.52Q87.16-8.12 88.18-6.24Q89.20-4.36 90.98-3.34Q92.76-2.32 95.00-2.32L95.00-2.32Z M133.84-10.52L133.80-9.64L116.20-9.64Q116.44-6.36 118.72-4.34Q121-2.32 124.48-2.32L124.48-2.32Q126.44-2.32 128.08-3.02Q129.72-3.72 130.92-5.08L130.92-5.08L132.52-3.24Q131.12-1.56 129.02-0.68Q126.92 0.20 124.40 0.20L124.40 0.20Q121.16 0.20 118.66-1.18Q116.16-2.56 114.76-5Q113.36-7.44 113.36-10.52L113.36-10.52Q113.36-13.60 114.70-16.04Q116.04-18.48 118.38-19.84Q120.72-21.20 123.64-21.20L123.64-21.20Q126.56-21.20 128.88-19.84Q131.20-18.48 132.52-16.06Q133.84-13.64 133.84-10.52L133.84-10.52ZM123.64-18.76Q120.60-18.76 118.54-16.82Q116.48-14.88 116.20-11.76L116.20-11.76L131.12-11.76Q130.84-14.88 128.78-16.82Q126.72-18.76 123.64-18.76L123.64-18.76Z M146.36-16.92Q147.36-19.04 149.34-20.12Q151.32-21.20 154.24-21.20L154.24-21.20L154.24-18.44L153.56-18.48Q150.24-18.48 148.36-16.44Q146.48-14.40 146.48-10.72L146.48-10.72L146.48 0L143.64 0L143.64-21.04L146.36-21.04L146.36-16.92Z M174.36-3.32L175.36-1.28Q174.56-0.56 173.38-0.18Q172.20 0.20 170.92 0.20L170.92 0.20Q167.96 0.20 166.36-1.40Q164.76-3 164.76-5.92L164.76-5.92L164.76-18.64L161-18.64L161-21.04L164.76-21.04L164.76-25.64L167.60-25.64L167.60-21.04L174-21.04L174-18.64L167.60-18.64L167.60-6.08Q167.60-4.20 168.54-3.22Q169.48-2.24 171.24-2.24L171.24-2.24Q172.12-2.24 172.94-2.52Q173.76-2.80 174.36-3.32L174.36-3.32Z M199-21.04L201.80-21.04L191.28 2.52Q190 5.48 188.32 6.72Q186.64 7.96 184.28 7.96L184.28 7.96Q182.76 7.96 181.44 7.48Q180.12 7 179.16 6.04L179.16 6.04L180.48 3.92Q182.08 5.52 184.32 5.52L184.32 5.52Q185.76 5.52 186.78 4.72Q187.80 3.92 188.68 2L188.68 2L189.60-0.04L180.20-21.04L183.16-21.04L191.08-3.16L199-21.04Z M232.60 0.24Q229.48 0.24 226.62-0.76Q223.76-1.76 222.20-3.40L222.20-3.40L223.36-5.68Q224.88-4.16 227.40-3.22Q229.92-2.28 232.60-2.28L232.60-2.28Q236.36-2.28 238.24-3.66Q240.12-5.04 240.12-7.24L240.12-7.24Q240.12-8.92 239.10-9.92Q238.08-10.92 236.60-11.46Q235.12-12 232.48-12.64L232.48-12.64Q229.32-13.44 227.44-14.18Q225.56-14.92 224.22-16.44Q222.88-17.96 222.88-20.56L222.88-20.56Q222.88-22.68 224-24.42Q225.12-26.16 227.44-27.20Q229.76-28.24 233.20-28.24L233.20-28.24Q235.60-28.24 237.90-27.58Q240.20-26.92 241.88-25.76L241.88-25.76L240.88-23.40Q239.12-24.56 237.12-25.14Q235.12-25.72 233.20-25.72L233.20-25.72Q229.52-25.72 227.66-24.30Q225.80-22.88 225.80-20.64L225.80-20.64Q225.80-18.96 226.82-17.94Q227.84-16.92 229.38-16.38Q230.92-15.84 233.52-15.20L233.52-15.20Q236.60-14.44 238.50-13.70Q240.40-12.96 241.72-11.46Q243.04-9.96 243.04-7.40L243.04-7.40Q243.04-5.28 241.90-3.54Q240.76-1.80 238.40-0.78Q236.04 0.24 232.60 0.24L232.60 0.24Z M271.24-10.52L271.20-9.64L253.60-9.64Q253.84-6.36 256.12-4.34Q258.40-2.32 261.88-2.32L261.88-2.32Q263.84-2.32 265.48-3.02Q267.12-3.72 268.32-5.08L268.32-5.08L269.92-3.24Q268.52-1.56 266.42-0.68Q264.32 0.20 261.80 0.20L261.80 0.20Q258.56 0.20 256.06-1.18Q253.56-2.56 252.16-5Q250.76-7.44 250.76-10.52L250.76-10.52Q250.76-13.60 252.10-16.04Q253.44-18.48 255.78-19.84Q258.12-21.20 261.04-21.20L261.04-21.20Q263.96-21.20 266.28-19.84Q268.60-18.48 269.92-16.06Q271.24-13.64 271.24-10.52L271.24-10.52ZM261.04-18.76Q258-18.76 255.94-16.82Q253.88-14.88 253.60-11.76L253.60-11.76L268.52-11.76Q268.24-14.88 266.18-16.82Q264.12-18.76 261.04-18.76L261.04-18.76Z M283.76-16.92Q284.76-19.04 286.74-20.12Q288.72-21.20 291.64-21.20L291.64-21.20L291.64-18.44L290.96-18.48Q287.64-18.48 285.76-16.44Q283.88-14.40 283.88-10.72L283.88-10.72L283.88 0L281.04 0L281.04-21.04L283.76-21.04L283.76-16.92Z M316.56-21.04L319.36-21.04L310 0L307.08 0L297.76-21.04L300.72-21.04L308.60-3.12L316.56-21.04Z M327.36 0L327.36-21.04L330.20-21.04L330.20 0L327.36 0ZM328.80-25.64Q327.92-25.64 327.32-26.24Q326.72-26.84 326.72-27.68L326.72-27.68Q326.72-28.48 327.32-29.08Q327.92-29.68 328.80-29.68L328.80-29.68Q329.68-29.68 330.28-29.10Q330.88-28.52 330.88-27.72L330.88-27.72Q330.88-26.84 330.28-26.24Q329.68-25.64 328.80-25.64L328.80-25.64Z M350.84 0.20Q347.72 0.20 345.26-1.16Q342.80-2.52 341.40-4.98Q340-7.44 340-10.52L340-10.52Q340-13.60 341.40-16.04Q342.80-18.48 345.26-19.84Q347.72-21.20 350.84-21.20L350.84-21.20Q353.56-21.20 355.70-20.14Q357.84-19.08 359.08-17.04L359.08-17.04L356.96-15.60Q355.92-17.16 354.32-17.94Q352.72-18.72 350.84-18.72L350.84-18.72Q348.56-18.72 346.74-17.70Q344.92-16.68 343.90-14.80Q342.88-12.92 342.88-10.52L342.88-10.52Q342.88-8.08 343.90-6.22Q344.92-4.36 346.74-3.34Q348.56-2.32 350.84-2.32L350.84-2.32Q352.72-2.32 354.32-3.08Q355.92-3.84 356.96-5.40L356.96-5.40L359.08-3.96Q357.84-1.92 355.68-0.86Q353.52 0.20 350.84 0.20L350.84 0.20Z M386.64-10.52L386.60-9.64L369-9.64Q369.24-6.36 371.52-4.34Q373.80-2.32 377.28-2.32L377.28-2.32Q379.24-2.32 380.88-3.02Q382.52-3.72 383.72-5.08L383.72-5.08L385.32-3.24Q383.92-1.56 381.82-0.68Q379.72 0.20 377.20 0.20L377.20 0.20Q373.96 0.20 371.46-1.18Q368.96-2.56 367.56-5Q366.16-7.44 366.16-10.52L366.16-10.52Q366.16-13.60 367.50-16.04Q368.84-18.48 371.18-19.84Q373.52-21.20 376.44-21.20L376.44-21.20Q379.36-21.20 381.68-19.84Q384-18.48 385.32-16.06Q386.64-13.64 386.64-10.52L386.64-10.52ZM376.44-18.76Q373.40-18.76 371.34-16.82Q369.28-14.88 369-11.76L369-11.76L383.92-11.76Q383.64-14.88 381.58-16.82Q379.52-18.76 376.44-18.76L376.44-18.76Z M402.08 0.20Q399.52 0.20 397.18-0.54Q394.84-1.28 393.52-2.40L393.52-2.40L394.80-4.64Q396.12-3.60 398.12-2.94Q400.12-2.28 402.28-2.28L402.28-2.28Q405.16-2.28 406.54-3.18Q407.92-4.08 407.92-5.72L407.92-5.72Q407.92-6.88 407.16-7.54Q406.40-8.20 405.24-8.54Q404.08-8.88 402.16-9.20L402.16-9.20Q399.60-9.68 398.04-10.18Q396.48-10.68 395.38-11.88Q394.28-13.08 394.28-15.20L394.28-15.20Q394.28-17.84 396.48-19.52Q398.68-21.20 402.60-21.20L402.60-21.20Q404.64-21.20 406.68-20.66Q408.72-20.12 410.04-19.24L410.04-19.24L408.80-16.96Q406.20-18.76 402.60-18.76L402.60-18.76Q399.88-18.76 398.50-17.80Q397.12-16.84 397.12-15.28L397.12-15.28Q397.12-14.08 397.90-13.36Q398.68-12.64 399.84-12.30Q401-11.96 403.04-11.60L403.04-11.60Q405.56-11.12 407.08-10.64Q408.60-10.16 409.68-9Q410.76-7.84 410.76-5.80L410.76-5.80Q410.76-3.04 408.46-1.42Q406.16 0.20 402.08 0.20L402.08 0.20Z"/></g>
</svg>
</g><g opacity="1" transform="rotate(0 428.2542 357.0606)">
<svg width="482.9943" height="57.6518" x="428.2542" y="357.0606" version="1.1" preserveAspectRatio="none" viewBox="2.8 -28.56 243.95999999999998 29.12">
  <g transform="matrix(1 0 0 1 0 0)" class="aD6z1nYkhcolor"><path d="M2.80 0L2.80-28L16.04-28Q20.64-28 24.20-26.28Q27.76-24.56 29.72-21.40Q31.68-18.24 31.68-14L31.68-14Q31.68-9.76 29.72-6.60Q27.76-3.44 24.20-1.72Q20.64 0 16.04 0L16.04 0L2.80 0ZM10.72-6.32L15.72-6.32Q19.32-6.32 21.50-8.36Q23.68-10.40 23.68-14L23.68-14Q23.68-17.60 21.50-19.64Q19.32-21.68 15.72-21.68L15.72-21.68L10.72-21.68L10.72-6.32Z M56.40 0L54.20-5.44L42.36-5.44L40.16 0L32.08 0L44.44-28L52.24-28L64.64 0L56.40 0ZM44.68-11.28L51.88-11.28L48.28-20.24L44.68-11.28Z M85.76-28L93.52-28L93.52 0L87 0L74.64-14.92L74.64 0L66.88 0L66.88-28L73.40-28L85.76-13.08L85.76-28Z M120.08 0L117.88-5.44L106.04-5.44L103.84 0L95.76 0L108.12-28L115.92-28L128.32 0L120.08 0ZM108.36-11.28L115.56-11.28L111.96-20.24L108.36-11.28Z M149.44-28L157.20-28L157.20 0L150.68 0L138.32-14.92L138.32 0L130.56 0L130.56-28L137.08-28L149.44-13.08L149.44-28Z M172.64 0.56Q169.24 0.56 166.04-0.28Q162.84-1.12 160.84-2.52L160.84-2.52L163.44-8.36Q165.32-7.12 167.80-6.36Q170.28-5.60 172.68-5.60L172.68-5.60Q177.24-5.60 177.24-7.88L177.24-7.88Q177.24-9.08 175.94-9.66Q174.64-10.24 171.76-10.88L171.76-10.88Q168.60-11.56 166.48-12.34Q164.36-13.12 162.84-14.84Q161.32-16.56 161.32-19.48L161.32-19.48Q161.32-22.04 162.72-24.10Q164.12-26.16 166.90-27.36Q169.68-28.56 173.72-28.56L173.72-28.56Q176.48-28.56 179.16-27.94Q181.84-27.32 183.88-26.12L183.88-26.12L181.44-20.24Q177.44-22.40 173.68-22.40L173.68-22.40Q171.32-22.40 170.24-21.70Q169.16-21 169.16-19.88L169.16-19.88Q169.16-18.76 170.44-18.20Q171.72-17.64 174.56-17.04L174.56-17.04Q177.76-16.36 179.86-15.58Q181.96-14.80 183.50-13.10Q185.04-11.40 185.04-8.48L185.04-8.48Q185.04-5.96 183.64-3.92Q182.24-1.88 179.44-0.66Q176.64 0.56 172.64 0.56L172.64 0.56Z M209.64 0L207.44-5.44L195.60-5.44L193.40 0L185.32 0L197.68-28L205.48-28L217.88 0L209.64 0ZM197.92-11.28L205.12-11.28L201.52-20.24L197.92-11.28Z M239-28L246.76-28L246.76 0L240.24 0L227.88-14.92L227.88 0L220.12 0L220.12-28L226.64-28L239-13.08L239-28Z"/></g>
</svg>
</g><g opacity="0.2" transform="rotate(0 219.5561 309.0816)">
<svg width="189.8057" height="180.8254" x="219.5561" y="309.0816" version="1.1" preserveAspectRatio="none" viewBox="0.5959482192993164 3.600001335144043 126.904052734375 120.9000015258789">
  <g transform="matrix(1 0 0 1 0 0)" class="aBKE9iRL30colors-0"><g><path d="M4.7,53.2c0.4,0,0.7-0.3,0.7-0.7V42.2c0-0.4-0.3-0.7-0.7-0.7c-0.4,0-0.7,0.3-0.7,0.7v10.3C3.9,52.9,4.2,53.2,4.7,53.2z"></path><path d="M4.7,60c0.4,0,0.7-0.3,0.7-0.7v-3.3c0-0.4-0.3-0.7-0.7-0.7c-0.4,0-0.7,0.3-0.7,0.7v3.3C3.9,59.7,4.2,60,4.7,60z"></path><path d="M124.7,89.9c-0.4,0-0.7,0.3-0.7,0.7v10.3c0,0.4,0.3,0.7,0.7,0.7c0.4,0,0.7-0.3,0.7-0.7V90.6   C125.5,90.2,125.1,89.9,124.7,89.9z"></path><path d="M124.7,103.6c-0.4,0-0.7,0.3-0.7,0.7v3.3c0,0.4,0.3,0.7,0.7,0.7c0.4,0,0.7-0.3,0.7-0.7v-3.3   C125.5,103.9,125.1,103.6,124.7,103.6z"></path><path d="M117.2,25.5c0.1,0.1,0.3,0.2,0.5,0.2c0.2,0,0.4-0.1,0.5-0.2c0.3-0.3,0.3-0.8,0-1l-1.6-1.6c-0.3-0.3-0.8-0.3-1,0   c-0.3,0.3-0.3,0.8,0,1L117.2,25.5z"></path><path d="M122.3,30.5c0.1,0.1,0.3,0.2,0.5,0.2c0.2,0,0.4-0.1,0.5-0.2c0.3-0.3,0.3-0.8,0-1l-1.6-1.6c-0.3-0.3-0.8-0.3-1,0   c-0.3,0.3-0.3,0.8,0,1L122.3,30.5z"></path><path d="M116.2,30.8c0.2,0,0.4-0.1,0.5-0.2l1.6-1.6c0.3-0.3,0.3-0.8,0-1c-0.3-0.3-0.8-0.3-1,0l-1.6,1.6c-0.3,0.3-0.3,0.8,0,1   C115.8,30.7,116,30.8,116.2,30.8z"></path><path d="M121.3,25.7c0.2,0,0.4-0.1,0.5-0.2l1.6-1.6c0.3-0.3,0.3-0.8,0-1c-0.3-0.3-0.8-0.3-1,0l-1.6,1.6c-0.3,0.3-0.3,0.8,0,1   C120.9,25.6,121.1,25.7,121.3,25.7z"></path><path d="M5.5,98.6c-0.3-0.3-0.8-0.3-1,0c-0.3,0.3-0.3,0.8,0,1l1.6,1.6c0.1,0.1,0.3,0.2,0.5,0.2c0.2,0,0.4-0.1,0.5-0.2   c0.3-0.3,0.3-0.8,0-1L5.5,98.6z"></path><path d="M10.6,103.7c-0.3-0.3-0.8-0.3-1,0c-0.3,0.3-0.3,0.8,0,1l1.6,1.6c0.1,0.1,0.3,0.2,0.5,0.2c0.2,0,0.4-0.1,0.5-0.2   c0.3-0.3,0.3-0.8,0-1L10.6,103.7z"></path><path d="M6,103.7l-1.6,1.6c-0.3,0.3-0.3,0.8,0,1c0.1,0.1,0.3,0.2,0.5,0.2c0.2,0,0.4-0.1,0.5-0.2l1.6-1.6c0.3-0.3,0.3-0.8,0-1   C6.7,103.4,6.3,103.4,6,103.7z"></path><path d="M11.1,98.6l-1.6,1.6c-0.3,0.3-0.3,0.8,0,1c0.1,0.1,0.3,0.2,0.5,0.2s0.4-0.1,0.5-0.2l1.6-1.6c0.3-0.3,0.3-0.8,0-1   C11.8,98.3,11.4,98.3,11.1,98.6z"></path><path d="M87.4,25.1c1.9,0,3.4-1.5,3.4-3.4c0-1.9-1.5-3.4-3.4-3.4c-1.9,0-3.4,1.5-3.4,3.4C84,23.6,85.5,25.1,87.4,25.1z M87.4,19.8   c1,0,1.9,0.8,1.9,1.9c0,1-0.8,1.9-1.9,1.9c-1,0-1.9-0.8-1.9-1.9C85.5,20.7,86.3,19.8,87.4,19.8z"></path><path d="M30,117.7c-1.9,0-3.4,1.5-3.4,3.4c0,1.9,1.5,3.4,3.4,3.4c1.9,0,3.4-1.5,3.4-3.4C33.4,119.2,31.9,117.7,30,117.7z M30,123   c-1,0-1.9-0.8-1.9-1.9c0-1,0.8-1.9,1.9-1.9c1,0,1.9,0.8,1.9,1.9C31.9,122.1,31.1,123,30,123z"></path><path d="M18.2,23.4c0,0.4,0.3,0.7,0.7,0.7h12.4c0.4,0,0.7-0.3,0.7-0.7c0-0.4-0.3-0.7-0.7-0.7H18.9C18.5,22.6,18.2,23,18.2,23.4z"></path><path d="M10.8,24.1h4c0.4,0,0.7-0.3,0.7-0.7c0-0.4-0.3-0.7-0.7-0.7h-4c-0.4,0-0.7,0.3-0.7,0.7C10.1,23.8,10.4,24.1,10.8,24.1z"></path><path d="M10.8,19.8h8.7c0.4,0,0.7-0.3,0.7-0.7c0-0.4-0.3-0.7-0.7-0.7h-8.7c-0.4,0-0.7,0.3-0.7,0.7C10.1,19.5,10.4,19.8,10.8,19.8z"></path><path d="M23.2,19.8H26c0.4,0,0.7-0.3,0.7-0.7c0-0.4-0.3-0.7-0.7-0.7h-2.8c-0.4,0-0.7,0.3-0.7,0.7C22.5,19.5,22.8,19.8,23.2,19.8z"></path><path d="M107.1,118.4c0-0.4-0.3-0.7-0.7-0.7H93.9c-0.4,0-0.7,0.3-0.7,0.7c0,0.4,0.3,0.7,0.7,0.7h12.4   C106.8,119.1,107.1,118.8,107.1,118.4z"></path><path d="M114.4,117.7h-4c-0.4,0-0.7,0.3-0.7,0.7c0,0.4,0.3,0.7,0.7,0.7h4c0.4,0,0.7-0.3,0.7-0.7C115.2,118,114.8,117.7,114.4,117.7   z"></path><path d="M114.4,121.9h-8.7c-0.4,0-0.7,0.3-0.7,0.7c0,0.4,0.3,0.7,0.7,0.7h8.7c0.4,0,0.7-0.3,0.7-0.7   C115.2,122.3,114.8,121.9,114.4,121.9z"></path><path d="M102.1,121.9h-2.8c-0.4,0-0.7,0.3-0.7,0.7c0,0.4,0.3,0.7,0.7,0.7h2.8c0.4,0,0.7-0.3,0.7-0.7   C102.8,122.3,102.5,121.9,102.1,121.9z"></path><path d="M127.4,77.9c-0.2-0.3-0.7-0.4-1-0.2c-4.9,3.3-9.8,6.9-14.5,10.5c-0.9,0.7-1.9,1-2.8,0.9c-0.4-0.1-1-0.3-1.4-0.8L91.1,64.1   c-0.4-0.6-0.4-1.2-0.3-1.6c0.2-0.9,0.9-1.8,1.8-2.3c3.5-2.1,7-4.4,10.4-6.6c0.3-0.2,0.4-0.7,0.2-1c-0.2-0.3-0.7-0.4-1-0.2   c-3.4,2.2-6.9,4.5-10.4,6.6c-1.2,0.7-2.1,1.8-2.4,3H58.9h-2.3H38.6c-0.3-1.2-1.2-2.3-2.4-3c-3.5-2.1-7-4.3-10.4-6.6   c-0.3-0.2-0.8-0.1-1,0.2c-0.2,0.3-0.1,0.8,0.2,1c3.4,2.3,6.9,4.5,10.4,6.6c0.9,0.6,1.6,1.4,1.8,2.3c0,0.1,0,0.1,0,0.2   c0,0.1,0,0.3,0.1,0.4c0,0.3-0.1,0.7-0.3,1L20.4,88.3c-0.4,0.6-1,0.8-1.4,0.8c-0.9,0.1-2-0.2-2.8-0.9C11.4,84.5,6.5,81,1.7,77.7   c-0.3-0.2-0.8-0.1-1,0.2c-0.2,0.3-0.1,0.8,0.2,1c4.8,3.3,9.7,6.8,14.4,10.5c1,0.8,2.2,1.2,3.3,1.2c0.2,0,0.4,0,0.7-0.1   c1-0.2,1.8-0.7,2.3-1.4l1.7-2.4c1,0.8,3.1,2.6,4,4.5c0.3,0.5,0.4,0.9,0.6,1.3c0.1,0.3,0.2,0.5,0.4,0.8c-0.4,0.3-0.8,0.7-1.2,1.1   l-1.2,1.7c-1.5,2.1-1.1,5,1,6.6l1.9,1.4c0.8,0.6,1.8,0.9,2.8,0.9c0.2,0,0.5,0,0.7-0.1c0.2,0,0.4-0.1,0.6-0.2   c-0.2,1.7,0.4,3.5,1.9,4.6l1.7,1.3v0c0.8,0.6,1.8,0.9,2.9,0.9c0.2,0,0.5,0,0.7-0.1c0.4-0.1,0.7-0.2,1.1-0.3c0,0.4,0,0.7,0,1.1   c0.2,1.3,0.9,2.4,1.9,3.2l1.7,1.3v0c0.8,0.6,1.8,0.9,2.9,0.9c0.2,0,0.5,0,0.7-0.1c0.5-0.1,0.9-0.2,1.3-0.4c0,1.4,0.6,2.7,1.7,3.6   l1.5,1.1c0.7,0.6,1.6,0.8,2.5,0.8c0.2,0,0.4,0,0.6,0c1.1-0.2,2.1-0.8,2.8-1.7l0.9-1.2c0.1,0.1,0.1,0.3,0.3,0.4   c1.1,0.7,2.3,1.1,3.5,1.1c2,0,3.9-0.9,5.1-2.7c1.1-1.6,1.3-3.5,0.8-5.2l3.1,2.2c1,0.7,2.2,1.1,3.5,1.1c0.4,0,0.8,0,1.1-0.1   c1.6-0.3,3-1.2,3.9-2.6c0.9-1.4,1.3-3,1-4.6c0-0.2-0.1-0.3-0.1-0.5l1.8,1.2c1,0.7,2.2,1.1,3.5,1.1c0.4,0,0.8,0,1.1-0.1   c1.6-0.3,3-1.2,3.9-2.6c0.9-1.4,1.3-3,1-4.6c0-0.2-0.1-0.3-0.1-0.5l2.3,1.5c1,0.7,2.2,1.1,3.5,1.1c0.4,0,0.8,0,1.1-0.1   c1.6-0.3,3-1.2,3.9-2.6c0.9-1.4,1.3-3,1-4.6c-0.3-1.6-1.2-3-2.6-3.9L80.4,80c-0.2-0.1-0.4-0.1-0.6-0.1h-3.8c-8,0-9-6.5-9.1-6.8   c0-0.4-0.4-0.6-0.7-0.6H53.4c-0.4,0-0.7,0.3-0.7,0.6c-0.7,3.8-2,6.4-4.1,7.7c-1.6,1-3.2,0.9-4,0.8V70.2l12.2-6.8h2.1h30.4   c0.1,0.5,0.2,1.1,0.5,1.5l16.6,24.2c0.5,0.8,1.4,1.3,2.3,1.4c0.2,0,0.4,0.1,0.7,0.1c1.1,0,2.3-0.4,3.3-1.2   c4.7-3.6,9.6-7.2,14.4-10.5C127.5,78.7,127.6,78.2,127.4,77.9z M32,103.5c-0.8,0.1-1.7-0.1-2.4-0.6v0l-1.9-1.4   c-1.4-1.1-1.7-3.1-0.7-4.5l1.2-1.7c0.3-0.4,0.8-0.8,1.2-1c0,0,0,0,0.1,0c0,0,0,0,0,0c0.2-0.1,0.5-0.2,0.8-0.2c0.2,0,0.3,0,0.5,0   c0.7,0,1.3,0.2,1.9,0.6l1.9,1.4c0.7,0.5,1.1,1.3,1.3,2.1c0.1,0.6,0,1.2-0.2,1.7l-2,2.7c0,0,0,0.1-0.1,0.1   C33.2,103.1,32.6,103.4,32,103.5z M39.8,110c-0.9,0.1-1.8-0.1-2.5-0.6v0l-1.7-1.3c-1.4-1-1.7-3-0.8-4.5c0.2-0.2,0.4-0.4,0.5-0.6   l1.2-1.7c0.2-0.3,0.4-0.5,0.5-0.8l1.4-1.9c0.7-0.9,1.7-1.4,2.7-1.4c0.7,0,1.4,0.2,2,0.7l1.7,1.3c1.5,1.1,1.8,3.2,0.7,4.7l-3.5,4.8   C41.5,109.4,40.7,109.9,39.8,110z M48.1,116.2c-0.9,0.1-1.8-0.1-2.5-0.6v0l-1.7-1.3c-0.7-0.5-1.2-1.3-1.3-2.2   c-0.1-0.9,0.1-1.8,0.6-2.5l5.6-7.5c0.5-0.7,1.3-1.2,2.2-1.3c0.2,0,0.3,0,0.5,0c0.7,0,1.4,0.2,2,0.7l1.7,1.3   c1.5,1.1,1.8,3.2,0.7,4.7l-5.6,7.5C49.7,115.6,49,116,48.1,116.2z M57.7,120.1c-0.4,0.6-1.1,1-1.9,1.1c-0.7,0.1-1.5-0.1-2.1-0.5v0   l-1.5-1.1c-1.3-0.9-1.5-2.7-0.6-4l1.7-2.3c0.4-0.6,1.1-1,1.9-1.1c0.1,0,0.3,0,0.4,0c0.6,0,1.2,0.2,1.7,0.6l1.5,1.1   c1.3,0.9,1.5,2.7,0.6,4L57.7,120.1z M43.5,69.2c-0.2,0.1-0.4,0.4-0.4,0.6v12.3c0,0.3,0.2,0.6,0.5,0.7c0.1,0,0.8,0.3,1.9,0.3   c1,0,2.4-0.2,3.8-1c2.3-1.4,3.9-4.1,4.7-8.1h11.5c0.5,1.9,2.6,7.4,10.4,7.4h3.9c0,0,0,0,0,0l21.6,14.8c1,0.7,1.7,1.8,1.9,3   c0.2,1.2,0,2.5-0.7,3.5c-0.7,1-1.8,1.7-3,1.9c-1.2,0.2-2.5,0-3.5-0.7l-5.5-3.7c0,0,0,0,0,0L75.1,89.5c-0.3-0.2-0.8-0.1-1,0.2   c-0.2,0.3-0.1,0.8,0.2,1l15.5,10.6c1,0.7,1.7,1.8,1.9,3c0.2,1.2,0,2.5-0.7,3.5c-1.5,2.1-4.4,2.7-6.5,1.2L69,98.4   c-0.3-0.2-0.7-0.1-1,0.1c-0.1,0.1-0.2,0.1-0.2,0.2c-0.2,0.3-0.1,0.8,0.2,1l10.6,7c1,0.7,1.7,1.8,1.9,3c0.2,1.2,0,2.5-0.7,3.5   c-0.7,1-1.8,1.7-3,1.9c-1.2,0.2-2.5,0-3.5-0.7l-10-7.1c-0.3-0.2-0.8-0.2-1,0.2c-0.2,0.3-0.2,0.8,0.2,1l3.3,2.4   c0.1,0.1,0.1,0.3,0.3,0.3c2.1,1.5,2.7,4.4,1.2,6.5c-1.5,2.1-4.4,2.7-6.5,1.2c-0.1-0.1-0.2-0.1-0.4-0.1l0.1-0.2c1.4-1.9,1-4.6-0.9-6   l-1.5-1.1c-0.9-0.7-2-0.9-3-0.8l1.9-2.5c1.6-2.1,1.1-5.2-1-6.7l-1.7-1.3c-2.1-1.6-5.1-1.1-6.7,1c-0.2-1.2-0.8-2.3-1.9-3.1L44,96.8   c-2.1-1.5-5-1.1-6.6,0.9c-0.2-1.1-0.8-2.1-1.8-2.8l-1.9-1.4c-1-0.7-2.2-1.1-3.5-0.9c-0.2,0-0.4,0.1-0.6,0.1   c-0.1-0.3-0.3-0.6-0.4-0.8c-0.2-0.4-0.4-0.8-0.6-1.4c-1.1-2.2-3.5-4.2-4.5-5.1l14.1-20.5c0.3-0.5,0.5-1,0.5-1.5h15.1L43.5,69.2z"></path><path d="M110.8,81.1c1.7,0,3.2-1.4,3.2-3.2c0-1.7-1.4-3.2-3.2-3.2c-1.7,0-3.2,1.4-3.2,3.2C107.6,79.7,109.1,81.1,110.8,81.1z    M110.8,76.2c0.9,0,1.7,0.8,1.7,1.7c0,0.9-0.8,1.7-1.7,1.7c-0.9,0-1.7-0.8-1.7-1.7C109.1,77,109.9,76.2,110.8,76.2z"></path><path d="M14,77.9c0,1.7,1.4,3.2,3.2,3.2c1.7,0,3.2-1.4,3.2-3.2c0-1.7-1.4-3.2-3.2-3.2C15.4,74.8,14,76.2,14,77.9z M18.9,77.9   c0,0.9-0.8,1.7-1.7,1.7s-1.7-0.8-1.7-1.7c0-0.9,0.8-1.7,1.7-1.7S18.9,77,18.9,77.9z"></path><path d="M96.7,62.1c-0.3,0.2-0.4,0.7-0.2,1l3.9,5.8c0.1,0.2,0.4,0.3,0.6,0.3c0.1,0,0.3,0,0.4-0.1c0.3-0.2,0.4-0.7,0.2-1l-3.9-5.8   C97.5,61.9,97,61.8,96.7,62.1z"></path><path d="M28,68.9l3.9-5.8c0.2-0.3,0.1-0.8-0.2-1c-0.3-0.2-0.8-0.1-1,0.2l-3.9,5.8c-0.2,0.3-0.1,0.8,0.2,1c0.1,0.1,0.3,0.1,0.4,0.1   C27.6,69.2,27.9,69.1,28,68.9z"></path><path d="M45.3,51.4h37.3c1.3,0,2.4-1.1,2.4-2.4v-0.9c0-1.3-1.1-2.4-2.4-2.4H81L79.8,38c-0.1-0.4-0.4-0.6-0.7-0.6h-6.2   c-1.3-0.5-2.4-1.6-3.1-3.2c-1.7-3.9-1-10.1,1.8-16.9c0-0.1,0.1-0.1,0.1-0.3c0.2-0.6,0.5-1.1,0.8-1.6c0,0,0,0,0,0c0,0,0-0.1,0.1-0.1   c0.3-0.8,0.4-1.7,0.4-2.7c0-5-4-9-9-9c-5,0-9,4-9,9c0,0.9,0.1,1.8,0.4,2.7l0,0c0,0.1,0,0.1,0.1,0.2c0.3,0.5,0.5,1,0.7,1.5   c0,0,0,0.1,0,0.1c0,0,0,0,0,0.1c2.9,6.9,3.6,13.1,1.9,17c-0.7,1.6-1.8,2.7-3.1,3.3h-6.2c-0.4,0-0.7,0.3-0.7,0.6L47,45.7h-1.7   c-1.3,0-2.4,1.1-2.4,2.4V49C42.9,50.3,44,51.4,45.3,51.4z M59.5,34.7c1.9-4.4,1.2-10.8-1.9-18.2l-0.7,0.3l0.6-0.4   c-0.2-0.5-0.5-1.1-0.8-1.6c-0.2-0.7-0.3-1.5-0.3-2.2C56.5,8.4,59.8,5,64,5c4.2,0,7.5,3.4,7.5,7.5c0,0.7-0.1,1.5-0.3,2.2   c-0.3,0.5-0.5,1.1-0.8,1.6c0,0.1-0.1,0.1-0.1,0.2l0.7,0.3l-0.7-0.2c-3.1,7.3-3.7,13.7-1.8,18.1c0.5,1.1,1.1,2,1.8,2.7H57.7   C58.4,36.7,59,35.8,59.5,34.7z M49.5,38.9h5.7h17.5h5.7l1,6.8h-31L49.5,38.9z M44.4,48.1c0-0.5,0.4-1,1-1h2.3h32.7h2.3   c0.5,0,1,0.4,1,1V49c0,0.5-0.4,1-1,1H45.3c-0.5,0-1-0.4-1-1V48.1z"></path></g></g>
</svg>
</g><g opacity="0.2" transform="rotate(0 219.5561 309.0816)">
<svg width="189.8057" height="180.8254" x="219.5561" y="309.0816" version="1.1" preserveAspectRatio="none" viewBox="0.5959482192993164 3.600001335144043 126.904052734375 120.9000015258789">
  <g transform="matrix(1 0 0 1 0 0)" class="aqmiXrCXvjcolors-0"><g><path d="M4.7,53.2c0.4,0,0.7-0.3,0.7-0.7V42.2c0-0.4-0.3-0.7-0.7-0.7c-0.4,0-0.7,0.3-0.7,0.7v10.3C3.9,52.9,4.2,53.2,4.7,53.2z"></path><path d="M4.7,60c0.4,0,0.7-0.3,0.7-0.7v-3.3c0-0.4-0.3-0.7-0.7-0.7c-0.4,0-0.7,0.3-0.7,0.7v3.3C3.9,59.7,4.2,60,4.7,60z"></path><path d="M124.7,89.9c-0.4,0-0.7,0.3-0.7,0.7v10.3c0,0.4,0.3,0.7,0.7,0.7c0.4,0,0.7-0.3,0.7-0.7V90.6   C125.5,90.2,125.1,89.9,124.7,89.9z"></path><path d="M124.7,103.6c-0.4,0-0.7,0.3-0.7,0.7v3.3c0,0.4,0.3,0.7,0.7,0.7c0.4,0,0.7-0.3,0.7-0.7v-3.3   C125.5,103.9,125.1,103.6,124.7,103.6z"></path><path d="M117.2,25.5c0.1,0.1,0.3,0.2,0.5,0.2c0.2,0,0.4-0.1,0.5-0.2c0.3-0.3,0.3-0.8,0-1l-1.6-1.6c-0.3-0.3-0.8-0.3-1,0   c-0.3,0.3-0.3,0.8,0,1L117.2,25.5z"></path><path d="M122.3,30.5c0.1,0.1,0.3,0.2,0.5,0.2c0.2,0,0.4-0.1,0.5-0.2c0.3-0.3,0.3-0.8,0-1l-1.6-1.6c-0.3-0.3-0.8-0.3-1,0   c-0.3,0.3-0.3,0.8,0,1L122.3,30.5z"></path><path d="M116.2,30.8c0.2,0,0.4-0.1,0.5-0.2l1.6-1.6c0.3-0.3,0.3-0.8,0-1c-0.3-0.3-0.8-0.3-1,0l-1.6,1.6c-0.3,0.3-0.3,0.8,0,1   C115.8,30.7,116,30.8,116.2,30.8z"></path><path d="M121.3,25.7c0.2,0,0.4-0.1,0.5-0.2l1.6-1.6c0.3-0.3,0.3-0.8,0-1c-0.3-0.3-0.8-0.3-1,0l-1.6,1.6c-0.3,0.3-0.3,0.8,0,1   C120.9,25.6,121.1,25.7,121.3,25.7z"></path><path d="M5.5,98.6c-0.3-0.3-0.8-0.3-1,0c-0.3,0.3-0.3,0.8,0,1l1.6,1.6c0.1,0.1,0.3,0.2,0.5,0.2c0.2,0,0.4-0.1,0.5-0.2   c0.3-0.3,0.3-0.8,0-1L5.5,98.6z"></path><path d="M10.6,103.7c-0.3-0.3-0.8-0.3-1,0c-0.3,0.3-0.3,0.8,0,1l1.6,1.6c0.1,0.1,0.3,0.2,0.5,0.2c0.2,0,0.4-0.1,0.5-0.2   c0.3-0.3,0.3-0.8,0-1L10.6,103.7z"></path><path d="M6,103.7l-1.6,1.6c-0.3,0.3-0.3,0.8,0,1c0.1,0.1,0.3,0.2,0.5,0.2c0.2,0,0.4-0.1,0.5-0.2l1.6-1.6c0.3-0.3,0.3-0.8,0-1   C6.7,103.4,6.3,103.4,6,103.7z"></path><path d="M11.1,98.6l-1.6,1.6c-0.3,0.3-0.3,0.8,0,1c0.1,0.1,0.3,0.2,0.5,0.2s0.4-0.1,0.5-0.2l1.6-1.6c0.3-0.3,0.3-0.8,0-1   C11.8,98.3,11.4,98.3,11.1,98.6z"></path><path d="M87.4,25.1c1.9,0,3.4-1.5,3.4-3.4c0-1.9-1.5-3.4-3.4-3.4c-1.9,0-3.4,1.5-3.4,3.4C84,23.6,85.5,25.1,87.4,25.1z M87.4,19.8   c1,0,1.9,0.8,1.9,1.9c0,1-0.8,1.9-1.9,1.9c-1,0-1.9-0.8-1.9-1.9C85.5,20.7,86.3,19.8,87.4,19.8z"></path><path d="M30,117.7c-1.9,0-3.4,1.5-3.4,3.4c0,1.9,1.5,3.4,3.4,3.4c1.9,0,3.4-1.5,3.4-3.4C33.4,119.2,31.9,117.7,30,117.7z M30,123   c-1,0-1.9-0.8-1.9-1.9c0-1,0.8-1.9,1.9-1.9c1,0,1.9,0.8,1.9,1.9C31.9,122.1,31.1,123,30,123z"></path><path d="M18.2,23.4c0,0.4,0.3,0.7,0.7,0.7h12.4c0.4,0,0.7-0.3,0.7-0.7c0-0.4-0.3-0.7-0.7-0.7H18.9C18.5,22.6,18.2,23,18.2,23.4z"></path><path d="M10.8,24.1h4c0.4,0,0.7-0.3,0.7-0.7c0-0.4-0.3-0.7-0.7-0.7h-4c-0.4,0-0.7,0.3-0.7,0.7C10.1,23.8,10.4,24.1,10.8,24.1z"></path><path d="M10.8,19.8h8.7c0.4,0,0.7-0.3,0.7-0.7c0-0.4-0.3-0.7-0.7-0.7h-8.7c-0.4,0-0.7,0.3-0.7,0.7C10.1,19.5,10.4,19.8,10.8,19.8z"></path><path d="M23.2,19.8H26c0.4,0,0.7-0.3,0.7-0.7c0-0.4-0.3-0.7-0.7-0.7h-2.8c-0.4,0-0.7,0.3-0.7,0.7C22.5,19.5,22.8,19.8,23.2,19.8z"></path><path d="M107.1,118.4c0-0.4-0.3-0.7-0.7-0.7H93.9c-0.4,0-0.7,0.3-0.7,0.7c0,0.4,0.3,0.7,0.7,0.7h12.4   C106.8,119.1,107.1,118.8,107.1,118.4z"></path><path d="M114.4,117.7h-4c-0.4,0-0.7,0.3-0.7,0.7c0,0.4,0.3,0.7,0.7,0.7h4c0.4,0,0.7-0.3,0.7-0.7C115.2,118,114.8,117.7,114.4,117.7   z"></path><path d="M114.4,121.9h-8.7c-0.4,0-0.7,0.3-0.7,0.7c0,0.4,0.3,0.7,0.7,0.7h8.7c0.4,0,0.7-0.3,0.7-0.7   C115.2,122.3,114.8,121.9,114.4,121.9z"></path><path d="M102.1,121.9h-2.8c-0.4,0-0.7,0.3-0.7,0.7c0,0.4,0.3,0.7,0.7,0.7h2.8c0.4,0,0.7-0.3,0.7-0.7   C102.8,122.3,102.5,121.9,102.1,121.9z"></path><path d="M127.4,77.9c-0.2-0.3-0.7-0.4-1-0.2c-4.9,3.3-9.8,6.9-14.5,10.5c-0.9,0.7-1.9,1-2.8,0.9c-0.4-0.1-1-0.3-1.4-0.8L91.1,64.1   c-0.4-0.6-0.4-1.2-0.3-1.6c0.2-0.9,0.9-1.8,1.8-2.3c3.5-2.1,7-4.4,10.4-6.6c0.3-0.2,0.4-0.7,0.2-1c-0.2-0.3-0.7-0.4-1-0.2   c-3.4,2.2-6.9,4.5-10.4,6.6c-1.2,0.7-2.1,1.8-2.4,3H58.9h-2.3H38.6c-0.3-1.2-1.2-2.3-2.4-3c-3.5-2.1-7-4.3-10.4-6.6   c-0.3-0.2-0.8-0.1-1,0.2c-0.2,0.3-0.1,0.8,0.2,1c3.4,2.3,6.9,4.5,10.4,6.6c0.9,0.6,1.6,1.4,1.8,2.3c0,0.1,0,0.1,0,0.2   c0,0.1,0,0.3,0.1,0.4c0,0.3-0.1,0.7-0.3,1L20.4,88.3c-0.4,0.6-1,0.8-1.4,0.8c-0.9,0.1-2-0.2-2.8-0.9C11.4,84.5,6.5,81,1.7,77.7   c-0.3-0.2-0.8-0.1-1,0.2c-0.2,0.3-0.1,0.8,0.2,1c4.8,3.3,9.7,6.8,14.4,10.5c1,0.8,2.2,1.2,3.3,1.2c0.2,0,0.4,0,0.7-0.1   c1-0.2,1.8-0.7,2.3-1.4l1.7-2.4c1,0.8,3.1,2.6,4,4.5c0.3,0.5,0.4,0.9,0.6,1.3c0.1,0.3,0.2,0.5,0.4,0.8c-0.4,0.3-0.8,0.7-1.2,1.1   l-1.2,1.7c-1.5,2.1-1.1,5,1,6.6l1.9,1.4c0.8,0.6,1.8,0.9,2.8,0.9c0.2,0,0.5,0,0.7-0.1c0.2,0,0.4-0.1,0.6-0.2   c-0.2,1.7,0.4,3.5,1.9,4.6l1.7,1.3v0c0.8,0.6,1.8,0.9,2.9,0.9c0.2,0,0.5,0,0.7-0.1c0.4-0.1,0.7-0.2,1.1-0.3c0,0.4,0,0.7,0,1.1   c0.2,1.3,0.9,2.4,1.9,3.2l1.7,1.3v0c0.8,0.6,1.8,0.9,2.9,0.9c0.2,0,0.5,0,0.7-0.1c0.5-0.1,0.9-0.2,1.3-0.4c0,1.4,0.6,2.7,1.7,3.6   l1.5,1.1c0.7,0.6,1.6,0.8,2.5,0.8c0.2,0,0.4,0,0.6,0c1.1-0.2,2.1-0.8,2.8-1.7l0.9-1.2c0.1,0.1,0.1,0.3,0.3,0.4   c1.1,0.7,2.3,1.1,3.5,1.1c2,0,3.9-0.9,5.1-2.7c1.1-1.6,1.3-3.5,0.8-5.2l3.1,2.2c1,0.7,2.2,1.1,3.5,1.1c0.4,0,0.8,0,1.1-0.1   c1.6-0.3,3-1.2,3.9-2.6c0.9-1.4,1.3-3,1-4.6c0-0.2-0.1-0.3-0.1-0.5l1.8,1.2c1,0.7,2.2,1.1,3.5,1.1c0.4,0,0.8,0,1.1-0.1   c1.6-0.3,3-1.2,3.9-2.6c0.9-1.4,1.3-3,1-4.6c0-0.2-0.1-0.3-0.1-0.5l2.3,1.5c1,0.7,2.2,1.1,3.5,1.1c0.4,0,0.8,0,1.1-0.1   c1.6-0.3,3-1.2,3.9-2.6c0.9-1.4,1.3-3,1-4.6c-0.3-1.6-1.2-3-2.6-3.9L80.4,80c-0.2-0.1-0.4-0.1-0.6-0.1h-3.8c-8,0-9-6.5-9.1-6.8   c0-0.4-0.4-0.6-0.7-0.6H53.4c-0.4,0-0.7,0.3-0.7,0.6c-0.7,3.8-2,6.4-4.1,7.7c-1.6,1-3.2,0.9-4,0.8V70.2l12.2-6.8h2.1h30.4   c0.1,0.5,0.2,1.1,0.5,1.5l16.6,24.2c0.5,0.8,1.4,1.3,2.3,1.4c0.2,0,0.4,0.1,0.7,0.1c1.1,0,2.3-0.4,3.3-1.2   c4.7-3.6,9.6-7.2,14.4-10.5C127.5,78.7,127.6,78.2,127.4,77.9z M32,103.5c-0.8,0.1-1.7-0.1-2.4-0.6v0l-1.9-1.4   c-1.4-1.1-1.7-3.1-0.7-4.5l1.2-1.7c0.3-0.4,0.8-0.8,1.2-1c0,0,0,0,0.1,0c0,0,0,0,0,0c0.2-0.1,0.5-0.2,0.8-0.2c0.2,0,0.3,0,0.5,0   c0.7,0,1.3,0.2,1.9,0.6l1.9,1.4c0.7,0.5,1.1,1.3,1.3,2.1c0.1,0.6,0,1.2-0.2,1.7l-2,2.7c0,0,0,0.1-0.1,0.1   C33.2,103.1,32.6,103.4,32,103.5z M39.8,110c-0.9,0.1-1.8-0.1-2.5-0.6v0l-1.7-1.3c-1.4-1-1.7-3-0.8-4.5c0.2-0.2,0.4-0.4,0.5-0.6   l1.2-1.7c0.2-0.3,0.4-0.5,0.5-0.8l1.4-1.9c0.7-0.9,1.7-1.4,2.7-1.4c0.7,0,1.4,0.2,2,0.7l1.7,1.3c1.5,1.1,1.8,3.2,0.7,4.7l-3.5,4.8   C41.5,109.4,40.7,109.9,39.8,110z M48.1,116.2c-0.9,0.1-1.8-0.1-2.5-0.6v0l-1.7-1.3c-0.7-0.5-1.2-1.3-1.3-2.2   c-0.1-0.9,0.1-1.8,0.6-2.5l5.6-7.5c0.5-0.7,1.3-1.2,2.2-1.3c0.2,0,0.3,0,0.5,0c0.7,0,1.4,0.2,2,0.7l1.7,1.3   c1.5,1.1,1.8,3.2,0.7,4.7l-5.6,7.5C49.7,115.6,49,116,48.1,116.2z M57.7,120.1c-0.4,0.6-1.1,1-1.9,1.1c-0.7,0.1-1.5-0.1-2.1-0.5v0   l-1.5-1.1c-1.3-0.9-1.5-2.7-0.6-4l1.7-2.3c0.4-0.6,1.1-1,1.9-1.1c0.1,0,0.3,0,0.4,0c0.6,0,1.2,0.2,1.7,0.6l1.5,1.1   c1.3,0.9,1.5,2.7,0.6,4L57.7,120.1z M43.5,69.2c-0.2,0.1-0.4,0.4-0.4,0.6v12.3c0,0.3,0.2,0.6,0.5,0.7c0.1,0,0.8,0.3,1.9,0.3   c1,0,2.4-0.2,3.8-1c2.3-1.4,3.9-4.1,4.7-8.1h11.5c0.5,1.9,2.6,7.4,10.4,7.4h3.9c0,0,0,0,0,0l21.6,14.8c1,0.7,1.7,1.8,1.9,3   c0.2,1.2,0,2.5-0.7,3.5c-0.7,1-1.8,1.7-3,1.9c-1.2,0.2-2.5,0-3.5-0.7l-5.5-3.7c0,0,0,0,0,0L75.1,89.5c-0.3-0.2-0.8-0.1-1,0.2   c-0.2,0.3-0.1,0.8,0.2,1l15.5,10.6c1,0.7,1.7,1.8,1.9,3c0.2,1.2,0,2.5-0.7,3.5c-1.5,2.1-4.4,2.7-6.5,1.2L69,98.4   c-0.3-0.2-0.7-0.1-1,0.1c-0.1,0.1-0.2,0.1-0.2,0.2c-0.2,0.3-0.1,0.8,0.2,1l10.6,7c1,0.7,1.7,1.8,1.9,3c0.2,1.2,0,2.5-0.7,3.5   c-0.7,1-1.8,1.7-3,1.9c-1.2,0.2-2.5,0-3.5-0.7l-10-7.1c-0.3-0.2-0.8-0.2-1,0.2c-0.2,0.3-0.2,0.8,0.2,1l3.3,2.4   c0.1,0.1,0.1,0.3,0.3,0.3c2.1,1.5,2.7,4.4,1.2,6.5c-1.5,2.1-4.4,2.7-6.5,1.2c-0.1-0.1-0.2-0.1-0.4-0.1l0.1-0.2c1.4-1.9,1-4.6-0.9-6   l-1.5-1.1c-0.9-0.7-2-0.9-3-0.8l1.9-2.5c1.6-2.1,1.1-5.2-1-6.7l-1.7-1.3c-2.1-1.6-5.1-1.1-6.7,1c-0.2-1.2-0.8-2.3-1.9-3.1L44,96.8   c-2.1-1.5-5-1.1-6.6,0.9c-0.2-1.1-0.8-2.1-1.8-2.8l-1.9-1.4c-1-0.7-2.2-1.1-3.5-0.9c-0.2,0-0.4,0.1-0.6,0.1   c-0.1-0.3-0.3-0.6-0.4-0.8c-0.2-0.4-0.4-0.8-0.6-1.4c-1.1-2.2-3.5-4.2-4.5-5.1l14.1-20.5c0.3-0.5,0.5-1,0.5-1.5h15.1L43.5,69.2z"></path><path d="M110.8,81.1c1.7,0,3.2-1.4,3.2-3.2c0-1.7-1.4-3.2-3.2-3.2c-1.7,0-3.2,1.4-3.2,3.2C107.6,79.7,109.1,81.1,110.8,81.1z    M110.8,76.2c0.9,0,1.7,0.8,1.7,1.7c0,0.9-0.8,1.7-1.7,1.7c-0.9,0-1.7-0.8-1.7-1.7C109.1,77,109.9,76.2,110.8,76.2z"></path><path d="M14,77.9c0,1.7,1.4,3.2,3.2,3.2c1.7,0,3.2-1.4,3.2-3.2c0-1.7-1.4-3.2-3.2-3.2C15.4,74.8,14,76.2,14,77.9z M18.9,77.9   c0,0.9-0.8,1.7-1.7,1.7s-1.7-0.8-1.7-1.7c0-0.9,0.8-1.7,1.7-1.7S18.9,77,18.9,77.9z"></path><path d="M96.7,62.1c-0.3,0.2-0.4,0.7-0.2,1l3.9,5.8c0.1,0.2,0.4,0.3,0.6,0.3c0.1,0,0.3,0,0.4-0.1c0.3-0.2,0.4-0.7,0.2-1l-3.9-5.8   C97.5,61.9,97,61.8,96.7,62.1z"></path><path d="M28,68.9l3.9-5.8c0.2-0.3,0.1-0.8-0.2-1c-0.3-0.2-0.8-0.1-1,0.2l-3.9,5.8c-0.2,0.3-0.1,0.8,0.2,1c0.1,0.1,0.3,0.1,0.4,0.1   C27.6,69.2,27.9,69.1,28,68.9z"></path><path d="M45.3,51.4h37.3c1.3,0,2.4-1.1,2.4-2.4v-0.9c0-1.3-1.1-2.4-2.4-2.4H81L79.8,38c-0.1-0.4-0.4-0.6-0.7-0.6h-6.2   c-1.3-0.5-2.4-1.6-3.1-3.2c-1.7-3.9-1-10.1,1.8-16.9c0-0.1,0.1-0.1,0.1-0.3c0.2-0.6,0.5-1.1,0.8-1.6c0,0,0,0,0,0c0,0,0-0.1,0.1-0.1   c0.3-0.8,0.4-1.7,0.4-2.7c0-5-4-9-9-9c-5,0-9,4-9,9c0,0.9,0.1,1.8,0.4,2.7l0,0c0,0.1,0,0.1,0.1,0.2c0.3,0.5,0.5,1,0.7,1.5   c0,0,0,0.1,0,0.1c0,0,0,0,0,0.1c2.9,6.9,3.6,13.1,1.9,17c-0.7,1.6-1.8,2.7-3.1,3.3h-6.2c-0.4,0-0.7,0.3-0.7,0.6L47,45.7h-1.7   c-1.3,0-2.4,1.1-2.4,2.4V49C42.9,50.3,44,51.4,45.3,51.4z M59.5,34.7c1.9-4.4,1.2-10.8-1.9-18.2l-0.7,0.3l0.6-0.4   c-0.2-0.5-0.5-1.1-0.8-1.6c-0.2-0.7-0.3-1.5-0.3-2.2C56.5,8.4,59.8,5,64,5c4.2,0,7.5,3.4,7.5,7.5c0,0.7-0.1,1.5-0.3,2.2   c-0.3,0.5-0.5,1.1-0.8,1.6c0,0.1-0.1,0.1-0.1,0.2l0.7,0.3l-0.7-0.2c-3.1,7.3-3.7,13.7-1.8,18.1c0.5,1.1,1.1,2,1.8,2.7H57.7   C58.4,36.7,59,35.8,59.5,34.7z M49.5,38.9h5.7h17.5h5.7l1,6.8h-31L49.5,38.9z M44.4,48.1c0-0.5,0.4-1,1-1h2.3h32.7h2.3   c0.5,0,1,0.4,1,1V49c0,0.5-0.4,1-1,1H45.3c-0.5,0-1-0.4-1-1V48.1z"></path></g></g>
</svg>
</g></svg>